<svg width="35" height="35" viewBox="0 0 35 35" fill="none" xmlns="http://www.w3.org/2000/svg">
<g clip-path="url(#clip0_118_817)">
<path d="M17.5 1.04317C19.7709 1.04317 22.0459 0.9584 24.312 1.06094C28.9365 1.26944 32.9397 4.87881 33.7217 9.44727C33.832 10.0794 33.8897 10.7196 33.8939 11.3613C33.909 15.415 33.911 19.4685 33.9001 23.5218C33.8885 28.5011 30.4439 32.6922 25.5603 33.652C24.9111 33.7759 24.2517 33.8381 23.5908 33.8379C19.5471 33.8543 15.5037 33.8566 11.4605 33.8447C6.49414 33.8379 2.35088 30.4938 1.32071 25.6348C1.17664 24.9268 1.10427 24.206 1.10469 23.4835C1.08487 19.44 1.09034 15.3966 1.09649 11.3531C1.10469 6.02588 5.02989 1.6461 10.325 1.06846C10.7812 1.0256 11.2395 1.00735 11.6977 1.01377C13.6329 1.00762 15.5682 1.01377 17.5034 1.01377L17.5 1.04317ZM17.5 30.6045C19.5371 30.6045 21.5742 30.6223 23.6113 30.6011C27.5194 30.5594 30.6359 27.4928 30.6599 23.6339C30.6863 19.4986 30.6863 15.3633 30.6599 11.228C30.6346 7.38897 27.4955 4.27178 23.6729 4.25947C19.579 4.24626 15.4845 4.24626 11.3894 4.25947C10.4622 4.25848 9.54404 4.44044 8.68737 4.79492C7.8307 5.1494 7.05239 5.66944 6.39704 6.32523C5.74169 6.98102 5.22218 7.75968 4.86828 8.6166C4.51439 9.47351 4.33305 10.3918 4.33467 11.3189C4.32738 15.3932 4.32897 19.4674 4.33946 23.5416C4.34062 24.0302 4.3917 24.5174 4.4919 24.9956C5.19942 28.3199 8.0295 30.5881 11.4775 30.6011C13.4839 30.6127 15.4909 30.6052 17.5 30.6045Z" fill="#FF6E8D"/>
<path d="M9.25586 17.4275C9.25559 16.3426 9.46938 15.2684 9.885 14.2663C10.3006 13.2642 10.9099 12.3539 11.6779 11.5877C12.4459 10.8215 13.3575 10.2143 14.3606 9.80103C15.3636 9.38774 16.4384 9.17644 17.5232 9.17923C22.0671 9.18811 25.7435 12.8891 25.738 17.4507C25.7351 19.6365 24.8643 21.7316 23.3171 23.2755C21.7698 24.8195 19.6728 25.6857 17.487 25.6839C12.9411 25.6784 9.25313 21.9802 9.25586 17.4275ZM12.494 17.4213C12.4865 20.1735 14.7219 22.43 17.4658 22.4423C18.4582 22.4502 19.4306 22.1632 20.2597 21.6177C21.0889 21.0723 21.7373 20.2929 22.123 19.3785C22.5087 18.4641 22.6142 17.4557 22.4261 16.4813C22.238 15.5068 21.7648 14.6101 21.0665 13.9049C20.3682 13.1997 19.4762 12.7177 18.5037 12.52C17.5311 12.3224 16.5218 12.4179 15.6036 12.7945C14.6854 13.1712 13.8997 13.812 13.3461 14.6357C12.7925 15.4594 12.496 16.4289 12.494 17.4213Z" fill="#FF6E8D"/>
<path d="M26.2681 10.5272C25.8977 10.5275 25.5355 10.4178 25.2275 10.2119C24.9196 10.0061 24.6796 9.71344 24.5382 9.37107C24.3967 9.0287 24.3602 8.65204 24.4331 8.28885C24.506 7.92566 24.6851 7.5923 24.9477 7.33103C25.2103 7.06977 25.5446 6.89237 25.9081 6.82133C26.2717 6.7503 26.6482 6.78882 26.9898 6.93202C27.3314 7.07522 27.6229 7.31664 27.8271 7.62568C28.0314 7.93471 28.1392 8.29744 28.1371 8.66787C28.1324 9.16122 27.9337 9.63289 27.5839 9.98086C27.2342 10.3288 26.7615 10.5251 26.2681 10.5272Z" fill="#FF6E8D"/>
<g opacity="0.2">
<path d="M2.98926 29.4971C2.98926 29.4971 5.60537 32.8125 10.9374 32.8125H24.1308C24.1308 32.8125 30.0862 32.4304 31.9278 29.6133C31.9278 29.6133 29.1668 33.8153 24.085 33.8153H11.0058C11.0058 33.8153 6.32041 33.9746 2.98926 29.4971Z" fill="#3F456B"/>
</g>
<g opacity="0.2">
<path d="M31.9278 5.3101C31.9278 5.3101 29.3117 1.99467 23.9797 1.99467H10.7863C10.7863 1.99467 4.83086 2.3768 2.98926 5.19526C2.98926 5.19526 5.75029 0.993893 10.8321 0.993893H23.9113C23.9113 0.993893 28.5967 0.832565 31.9278 5.3101Z" fill="white"/>
</g>
<g opacity="0.2">
<path d="M9.36523 18.77C9.36523 18.77 10.459 24.8144 17.5 24.8144C24.541 24.8144 25.63 18.77 25.63 18.77C25.63 18.77 24.3359 25.703 17.5 25.703C10.6641 25.703 9.36523 18.77 9.36523 18.77Z" fill="#3F456B"/>
</g>
<g opacity="0.2">
<path d="M25.63 16.1327C25.63 16.1327 24.5362 10.0884 17.4952 10.0884C10.4542 10.0884 9.36523 16.1327 9.36523 16.1327C9.36523 16.1327 10.6593 9.19971 17.4952 9.19971C24.3312 9.19971 25.63 16.1327 25.63 16.1327Z" fill="white"/>
</g>
<g opacity="0.2">
<path d="M12.9883 15.13C12.9883 15.13 13.5352 11.6211 17.5 11.6211C21.4648 11.6211 21.9434 15.13 21.9434 15.13C21.9434 15.13 20.7129 12.4414 17.5 12.4414C14.2871 12.4414 12.9883 15.13 12.9883 15.13Z" fill="#3F456B"/>
</g>
<g opacity="0.2">
<path d="M21.9434 19.7559C21.9434 19.7559 21.3965 23.2647 17.4316 23.2647C13.4668 23.2647 12.9883 19.7559 12.9883 19.7559C12.9883 19.7559 14.2188 22.4444 17.4316 22.4444C20.6445 22.4444 21.9434 19.7559 21.9434 19.7559Z" fill="white"/>
</g>
<g opacity="0.2">
<path d="M24.3891 8.84092C24.3891 8.84092 24.6093 7.51953 26.2499 7.51953C27.8905 7.51953 28.1366 8.84092 28.1366 8.84092C28.1366 8.84092 28.2323 6.76758 26.2499 6.76758C24.2675 6.76758 24.3891 8.84092 24.3891 8.84092Z" fill="white"/>
</g>
<g opacity="0.2">
<path d="M28.1359 8.47656C28.1359 8.47656 27.9165 9.79795 26.2758 9.79795C24.6352 9.79795 24.3884 8.47656 24.3884 8.47656C24.3884 8.47656 24.2934 10.5499 26.2758 10.5499C28.2582 10.5499 28.1359 8.47656 28.1359 8.47656Z" fill="#3F456B"/>
</g>
<path d="M17.1584 34.1918C15.3202 34.1918 13.4356 34.1918 11.4613 34.187C8.94503 34.1836 6.60782 33.3667 4.70128 31.8259C2.79473 30.2851 1.50889 28.1673 0.987312 25.7077C0.837889 24.9769 0.762994 24.2327 0.763777 23.4867C0.742585 19.3455 0.752155 15.0997 0.752155 11.3543C0.74004 8.71659 1.70889 6.16852 3.47047 4.20518C5.23205 2.24185 7.66057 1.00345 10.2842 0.730598C10.7527 0.686399 11.2232 0.667231 11.6938 0.673176C13.1115 0.669075 14.5532 0.673176 15.9471 0.673176H17.5248C17.5795 0.673176 17.8283 0.673176 18.1141 0.673176C19.445 0.66429 22.5636 0.643782 24.3273 0.723079C26.6371 0.827668 28.895 1.76693 30.6847 3.3679C32.4743 4.96888 33.6651 7.10238 34.0575 9.39378C34.1707 10.044 34.2299 10.7025 34.2346 11.3625C34.2489 15.1093 34.2503 19.0871 34.2407 23.5257C34.2431 24.925 33.9693 26.311 33.435 27.6043C32.9008 28.8975 32.1166 30.0727 31.1275 31.0624C30.1383 32.0521 28.9635 32.8368 27.6705 33.3717C26.3775 33.9066 24.9917 34.1811 23.5924 34.1795C21.465 34.1891 19.3459 34.1918 17.1584 34.1918ZM14.4035 1.35404C13.5032 1.35404 12.5947 1.35404 11.6958 1.35404C11.2497 1.34851 10.8036 1.3663 10.3594 1.40736C7.90232 1.66176 5.62778 2.82118 3.97836 4.66C2.32894 6.49883 1.42261 8.88553 1.43575 11.3557C1.43028 15.0997 1.42344 19.3435 1.44395 23.484C1.44393 24.1834 1.5147 24.8811 1.65518 25.5662C2.14395 27.87 3.34571 29.851 5.13057 31.2941C6.91544 32.7371 9.10294 33.5007 11.4613 33.5034C15.7844 33.5089 19.6809 33.5123 23.5897 33.4966C24.2297 33.4966 24.8683 33.436 25.4969 33.3155C27.7724 32.8796 29.8238 31.6617 31.296 29.8728C32.7683 28.0838 33.5686 25.8364 33.5585 23.5196C33.5681 19.083 33.5667 15.1059 33.5523 11.3612C33.5479 10.7378 33.4919 10.1159 33.3849 9.50179C33.0191 7.36282 31.8981 5.36263 30.2301 3.87103C28.5621 2.37943 26.4498 1.49622 24.2965 1.39915C22.5506 1.32054 19.443 1.34105 18.1182 1.34993C17.7989 1.34993 17.6144 1.35335 17.5029 1.34652V1.35198H14.4035V1.35404ZM17.5337 0.670442C17.6182 0.678762 17.6966 0.718229 17.7535 0.781158C17.8105 0.844086 17.8421 0.925972 17.842 1.01087C17.8416 0.926327 17.8098 0.844944 17.7529 0.782448C17.6959 0.719952 17.6178 0.680777 17.5337 0.672493V0.670442ZM21.2935 30.9536C20.6564 30.9536 20.0227 30.9536 19.3979 30.9502C18.7731 30.9468 18.1318 30.9468 17.4982 30.9468C16.9271 30.9468 16.3575 30.9468 15.7892 30.9468C14.3769 30.9468 12.9181 30.9509 11.4825 30.9468C9.71202 30.9386 8.07481 30.3719 6.74932 29.3062C5.42384 28.2405 4.52764 26.7769 4.16397 25.0679C4.05836 24.5666 4.00475 24.0558 4.00401 23.5435C3.99307 19.6552 3.99102 15.5454 3.99923 11.3195C3.99743 10.3482 4.18716 9.38609 4.55757 8.48821C4.92797 7.59033 5.47178 6.7743 6.15788 6.08681C6.84398 5.39931 7.6589 4.85384 8.55603 4.48161C9.45315 4.10938 10.4149 3.91769 11.3861 3.91751C15.9888 3.90589 20.0076 3.90589 23.6717 3.91751C27.6851 3.9305 30.9725 7.20902 30.9991 11.2251C31.0258 15.2672 31.0258 19.4426 30.9991 23.6358C30.9965 24.596 30.8033 25.5462 30.4309 26.4313C30.0584 27.3164 29.5141 28.1189 28.8294 28.7921C27.4372 30.1616 25.5651 30.9331 23.6122 30.942C22.8425 30.9502 22.0652 30.953 21.2928 30.953L21.2935 30.9536ZM17.5002 30.2625C18.1341 30.2625 18.768 30.2637 19.402 30.2659C20.7808 30.2694 22.2047 30.2735 23.6081 30.2591C27.3474 30.2195 30.295 27.308 30.3183 23.6317C30.3449 19.4412 30.3449 15.2686 30.3183 11.2299C30.2943 7.58636 27.3105 4.61341 23.6724 4.59906C20.0097 4.58743 15.9922 4.58743 11.3902 4.59906C10.5081 4.59815 9.6344 4.77137 8.81931 5.10877C8.00422 5.44617 7.26373 5.94113 6.64029 6.56526C6.01685 7.1894 5.52273 7.93044 5.18624 8.74591C4.84975 9.56139 4.67751 10.4352 4.6794 11.3174C4.6712 15.5393 4.67325 19.6504 4.68419 23.538C4.68396 24.0036 4.73161 24.4679 4.82637 24.9237C5.50245 28.1017 8.17598 30.2468 11.4791 30.2618C12.9147 30.2687 14.3734 30.2666 15.7857 30.2618L17.5002 30.2625Z" fill="#3F456B"/>
<path d="M17.4938 26.0236H17.4863C12.7572 26.0195 8.91133 22.1634 8.91406 17.4274C8.91379 16.2991 9.13589 15.1817 9.56765 14.1392C9.99942 13.0967 10.6324 12.1495 11.4304 11.3518C12.2284 10.5541 13.1758 9.92138 14.2184 9.48995C15.261 9.05851 16.3785 8.83677 17.5068 8.8374H17.5239C22.2476 8.84629 26.0853 12.71 26.0798 17.4507C26.0743 22.1914 22.223 26.0236 17.4938 26.0236ZM17.5068 9.521C16.4682 9.52028 15.4396 9.72427 14.4799 10.1213C13.5202 10.5184 12.6481 11.1007 11.9136 11.835C11.179 12.5693 10.5964 13.4411 10.199 14.4007C9.80165 15.3603 9.5973 16.3888 9.59766 17.4274C9.59766 21.7867 13.1346 25.3366 17.487 25.34H17.4938C19.587 25.3375 21.5939 24.5056 23.075 23.0266C24.5561 21.5475 25.3908 19.5418 25.3962 17.4486C25.401 13.0859 21.8695 9.5292 17.5226 9.51895L17.5068 9.521ZM17.4884 22.7841H17.4645C14.525 22.7711 12.1447 20.3648 12.1522 17.4206C12.1573 16.0033 12.7233 14.6457 13.7264 13.6445C14.7295 12.6433 16.0882 12.08 17.5055 12.0776H17.515C18.9349 12.0845 20.2938 12.6551 21.293 13.6639C22.2922 14.6726 22.8497 16.037 22.843 17.4568C22.8331 18.8714 22.2649 20.2248 21.2621 21.2225C20.2592 22.2202 18.903 22.7814 17.4884 22.7841ZM17.5055 12.7612C16.267 12.7562 15.0773 13.2433 14.1979 14.1154C13.3186 14.9875 12.8218 16.1733 12.8167 17.4117C12.8116 18.6502 13.2987 19.8399 14.1709 20.7193C15.043 21.5986 16.2287 22.0954 17.4672 22.1005H17.4884C18.4109 22.1008 19.3129 21.8279 20.0805 21.3161C20.8481 20.8044 21.4469 20.0767 21.8013 19.225C22.1558 18.3733 22.25 17.4356 22.0721 16.5304C21.8942 15.6252 21.4522 14.7929 20.8018 14.1387C20.3723 13.7027 19.8605 13.3564 19.296 13.1199C18.7315 12.8834 18.1257 12.7615 17.5137 12.7612H17.5055Z" fill="#3F456B"/>
<path d="M26.267 10.8691C25.9733 10.8747 25.6814 10.8218 25.4084 10.7133C25.1353 10.6049 24.8866 10.4432 24.6768 10.2376C24.467 10.0321 24.3002 9.78678 24.1861 9.51605C24.0721 9.24532 24.0132 8.9546 24.0127 8.66084C24.0122 8.36708 24.0703 8.07618 24.1835 7.8051C24.2967 7.53402 24.4627 7.2882 24.6719 7.08199C24.8811 6.87577 25.1293 6.71329 25.402 6.60403C25.6747 6.49476 25.9664 6.4409 26.2601 6.44559C26.5539 6.44462 26.845 6.50227 27.1163 6.61519C27.3876 6.72811 27.6336 6.89403 27.8399 7.10321C28.0448 7.30923 28.2066 7.55401 28.3159 7.82325C28.4252 8.0925 28.4797 8.38082 28.4763 8.67138C28.4695 9.25404 28.2343 9.81075 27.8213 10.2218C27.4082 10.6328 26.8503 10.8652 26.2676 10.8691H26.267ZM26.2622 7.12919C25.859 7.13078 25.4726 7.29091 25.1865 7.57498C24.9004 7.85906 24.7375 8.24428 24.733 8.64745C24.7308 8.8481 24.7688 9.04715 24.8448 9.23288C24.9208 9.41861 25.0331 9.58726 25.1753 9.7289C25.318 9.874 25.4883 9.98913 25.6761 10.0675C25.8639 10.146 26.0655 10.1861 26.269 10.1855C26.6721 10.1829 27.0581 10.022 27.3438 9.73747C27.6294 9.45297 27.7919 9.06766 27.7962 8.66454C27.7986 8.46436 27.761 8.26571 27.6856 8.08024C27.6103 7.89478 27.4986 7.72622 27.3573 7.58446C27.2143 7.43944 27.0437 7.32447 26.8557 7.24628C26.6676 7.1681 26.4658 7.12829 26.2622 7.12919Z" fill="#3F456B"/>
<path d="M17.4885 22.7841H17.4646C14.5251 22.7711 12.1448 20.3648 12.1524 17.4206C12.1574 16.0033 12.7234 14.6457 13.7265 13.6445C14.7296 12.6433 16.0883 12.08 17.5056 12.0776H17.5152C18.935 12.0845 20.2939 12.6551 21.2931 13.6639C22.2923 14.6726 22.8498 16.037 22.8431 17.4568C22.8332 18.8714 22.265 20.2248 21.2622 21.2225C20.2593 22.2202 18.9031 22.7814 17.4885 22.7841ZM17.5056 12.7612C16.2671 12.7562 15.0774 13.2433 14.1981 14.1154C13.3187 14.9875 12.8219 16.1733 12.8168 17.4117C12.8117 18.6502 13.2988 19.8399 14.171 20.7193C15.0431 21.5986 16.2288 22.0954 17.4673 22.1005H17.4885C18.411 22.1008 19.313 21.8279 20.0806 21.3162C20.8482 20.8044 21.447 20.0767 21.8014 19.225C22.1559 18.3733 22.2501 17.4356 22.0722 16.5304C21.8943 15.6252 21.4523 14.7929 20.8019 14.1387C20.3724 13.7027 19.8606 13.3564 19.2961 13.1199C18.7316 12.8834 18.1258 12.7615 17.5138 12.7612H17.5056Z" fill="#3F456B"/>
</g>
<defs>
<clipPath id="clip0_118_817">
<rect width="35" height="35" fill="white"/>
</clipPath>
</defs>
</svg>
