<svg width="50" height="50" viewBox="0 0 50 50" fill="none" xmlns="http://www.w3.org/2000/svg">
<path d="M5.00016 7.99996C4.73514 7.99621 4.47202 8.04517 4.22608 8.144C3.98014 8.24283 3.7563 8.38955 3.56756 8.57564C3.37882 8.76172 3.22895 8.98347 3.12665 9.22798C3.02436 9.4725 2.97168 9.73491 2.97168 9.99996C2.97168 10.265 3.02436 10.5274 3.12665 10.7719C3.22895 11.0164 3.37882 11.2382 3.56756 11.4243C3.7563 11.6104 3.98014 11.7571 4.22608 11.8559C4.47202 11.9547 4.73514 12.0037 5.00016 12H45.0002C45.2652 12.0037 45.5283 11.9547 45.7743 11.8559C46.0202 11.7571 46.244 11.6104 46.4328 11.4243C46.6215 11.2382 46.7714 11.0164 46.8737 10.7719C46.976 10.5274 47.0286 10.265 47.0286 9.99996C47.0286 9.73491 46.976 9.4725 46.8737 9.22798C46.7714 8.98347 46.6215 8.76172 46.4328 8.57564C46.244 8.38955 46.0202 8.24283 45.7743 8.144C45.5283 8.04517 45.2652 7.99621 45.0002 7.99996H5.00016ZM5.00016 23C4.73514 22.9962 4.47202 23.0452 4.22608 23.144C3.98014 23.2428 3.7563 23.3895 3.56756 23.5756C3.37882 23.7617 3.22895 23.9835 3.12665 24.228C3.02436 24.4725 2.97168 24.7349 2.97168 25C2.97168 25.265 3.02436 25.5274 3.12665 25.7719C3.22895 26.0164 3.37882 26.2382 3.56756 26.4243C3.7563 26.6104 3.98014 26.7571 4.22608 26.8559C4.47202 26.9547 4.73514 27.0037 5.00016 27H45.0002C45.2652 27.0037 45.5283 26.9547 45.7743 26.8559C46.0202 26.7571 46.244 26.6104 46.4328 26.4243C46.6215 26.2382 46.7714 26.0164 46.8737 25.7719C46.976 25.5274 47.0286 25.265 47.0286 25C47.0286 24.7349 46.976 24.4725 46.8737 24.228C46.7714 23.9835 46.6215 23.7617 46.4328 23.5756C46.244 23.3895 46.0202 23.2428 45.7743 23.144C45.5283 23.0452 45.2652 22.9962 45.0002 23H5.00016ZM5.00016 38C4.73514 37.9962 4.47202 38.0452 4.22608 38.144C3.98014 38.2428 3.7563 38.3895 3.56756 38.5756C3.37882 38.7617 3.22895 38.9835 3.12665 39.228C3.02436 39.4725 2.97168 39.7349 2.97168 40C2.97168 40.265 3.02436 40.5274 3.12665 40.7719C3.22895 41.0164 3.37882 41.2382 3.56756 41.4243C3.7563 41.6104 3.98014 41.7571 4.22608 41.8559C4.47202 41.9547 4.73514 42.0037 5.00016 42H45.0002C45.2652 42.0037 45.5283 41.9547 45.7743 41.8559C46.0202 41.7571 46.244 41.6104 46.4328 41.4243C46.6215 41.2382 46.7714 41.0164 46.8737 40.7719C46.976 40.5274 47.0286 40.265 47.0286 40C47.0286 39.7349 46.976 39.4725 46.8737 39.228C46.7714 38.9835 46.6215 38.7617 46.4328 38.5756C46.244 38.3895 46.0202 38.2428 45.7743 38.144C45.5283 38.0452 45.2652 37.9962 45.0002 38H5.00016Z" fill="#EEC8BD"/>
</svg>
