<svg width="35" height="35" viewBox="0 0 35 35" fill="none" xmlns="http://www.w3.org/2000/svg">
<path d="M17.5684 32.8125H17.5622C14.8203 32.8129 12.1286 32.076 9.76925 30.679L9.21007 30.3475L3.41798 31.8664L4.96427 26.2179L4.60059 25.6389C3.06579 23.1989 2.25288 20.3744 2.25587 17.4918C2.25929 9.05215 9.12872 2.1875 17.5745 2.1875C21.6354 2.18913 25.5294 3.80378 28.3998 6.67629C31.2703 9.5488 32.8821 13.4439 32.8809 17.5048C32.8809 25.9451 26.008 32.8125 17.5684 32.8125ZM25.9677 21.3473C25.5076 21.1176 23.2442 20.004 22.8232 19.8502C22.4021 19.6964 22.0944 19.6198 21.7875 20.0806C21.4806 20.5413 20.5981 21.5783 20.3294 21.8853C20.0608 22.1922 19.7928 22.2305 19.332 22.0001C18.8713 21.7697 17.3886 21.2844 15.6304 19.7162C14.2632 18.496 13.3383 16.9894 13.0696 16.5286C12.801 16.0679 13.0409 15.8184 13.2713 15.5894C13.4764 15.3843 13.732 15.0521 13.9617 14.7827C14.1914 14.5134 14.2687 14.322 14.4225 14.015C14.5763 13.7081 14.499 13.4395 14.3842 13.2091C14.2693 12.9787 13.3485 10.7133 12.9644 9.79111C12.5911 8.89355 12.2124 9.01523 11.9287 9.00088C11.6608 8.98789 11.3538 8.98447 11.0469 8.98447C10.8131 8.99027 10.583 9.04447 10.3713 9.14366C10.1595 9.24285 9.97055 9.38486 9.81641 9.56074C9.39464 10.0215 8.20518 11.133 8.20518 13.3998C8.20518 15.6666 9.8547 17.8527 10.0851 18.1597C10.3154 18.4666 13.3308 23.115 17.9464 25.1084C18.8052 25.4784 19.683 25.8024 20.5762 26.0791C21.6788 26.4291 22.6823 26.3799 23.476 26.2616C24.3599 26.1297 26.1994 25.148 26.5829 24.0741C26.9664 23.0002 26.9664 22.078 26.8516 21.8866C26.7367 21.6952 26.4291 21.5797 25.9691 21.3486" fill="#8DD3B7"/>
<g opacity="0.2">
<path d="M3.4043 31.7284L9.33789 28.9845C9.33789 28.9845 13.1024 31.7284 17.5684 31.7284C22.0343 31.7284 27.1284 30.0693 30.5149 25.667C30.5149 25.667 26.6923 32.5788 18.0147 32.7914C18.0147 32.7914 13.421 33.2597 9.21006 30.3243L3.4043 31.7284Z" fill="#3F456B"/>
</g>
<g opacity="0.3">
<path d="M4.74023 9.11006C4.74023 9.11006 9.08311 3.33574 17.6321 3.33574C26.1812 3.33574 30.4755 9.11006 30.4755 9.11006C30.4755 9.11006 26.3739 2.23242 17.8242 2.23242C8.63603 2.23242 4.74023 9.11006 4.74023 9.11006Z" fill="white"/>
</g>
<g opacity="0.3">
<path d="M23.4421 26.2931C23.9767 26.2138 24.8612 25.8228 25.5612 25.2882C24.9316 26.1892 23.4421 26.9438 22.6758 27.0587C21.8821 27.1776 20.8793 27.2269 19.776 26.8762C18.8849 26.6001 18.0092 26.277 17.1523 25.9082C12.5354 23.9148 9.51934 19.2671 9.29102 18.9595C9.0627 18.6519 7.41113 16.4644 7.41113 14.1989C7.41113 11.9335 8.60059 10.8206 9.02236 10.3599C9.12297 10.2502 9.23608 10.1527 9.35937 10.0693C8.84668 10.6846 8.17676 11.7339 8.17676 13.4333C8.17676 15.6987 9.82627 17.8869 10.0566 18.1938C10.287 18.5008 13.303 23.1492 17.918 25.1426C18.775 25.5123 19.651 25.8363 20.5423 26.1133C21.6456 26.4612 22.6484 26.412 23.4421 26.2931Z" fill="white"/>
</g>
<g opacity="0.2">
<path d="M13.5164 15.3311C13.5164 15.3311 15.0162 19.4142 20.5027 21.4882C20.5027 21.4882 20.3756 22.2538 19.5778 22.1103C18.7801 21.9667 15.0162 20.1162 13.0379 16.5431C13.0379 16.5431 12.6551 15.9053 13.5164 15.3311Z" fill="#3F456B"/>
</g>
<g opacity="0.2">
<path d="M21.8643 19.9569C21.8643 19.9569 22.4795 18.7128 23.4365 19.0956C24.3936 19.4784 26.5646 20.5626 26.5646 20.5626C26.5646 20.5626 27.5702 21.0131 26.9064 22.128C26.9064 22.128 26.9461 21.7111 26.2762 21.4239C25.6063 21.1368 22.7987 19.8612 22.7987 19.8612C22.6493 19.7893 22.4829 19.7602 22.318 19.7771C22.153 19.794 21.996 19.8562 21.8643 19.9569Z" fill="#3F456B"/>
</g>
<g opacity="0.2">
<path d="M10.3584 9.14238C10.3584 9.14238 10.6776 8.12109 11.5711 8.12109H12.2089C12.2089 8.12109 13.1659 8.18535 13.4852 8.88672C13.8044 9.58809 14.8886 12.1406 14.8886 12.1406C14.8886 12.1406 15.335 13.1619 14.5693 13.6083L12.8788 9.65234C12.8788 9.65234 12.6553 9.01455 11.9539 9.01455C11.2525 9.01455 10.9326 8.88672 10.3584 9.14238Z" fill="#3F456B"/>
</g>
<path d="M17.5684 33.1543H17.5622C14.7587 33.1548 12.0066 32.4014 9.59426 30.9729L9.16018 30.7132L3.5007 32.1973C3.44265 32.2125 3.3816 32.2122 3.32371 32.1963C3.26583 32.1805 3.21313 32.1496 3.17094 32.107C3.12874 32.0643 3.09852 32.0112 3.08333 31.9532C3.06814 31.8951 3.06851 31.8341 3.08439 31.7762L4.59172 26.2726L4.30666 25.8207C2.73888 23.3259 1.90937 20.4383 1.91408 17.4918C1.9175 8.86348 8.94279 1.8457 17.5745 1.8457C21.7261 1.84733 25.707 3.498 28.6415 6.43461C31.5761 9.37122 33.2239 13.3532 33.2227 17.5048C33.2227 26.1338 26.1967 33.1543 17.5684 33.1543ZM9.20939 30.005C9.27074 30.005 9.33095 30.0215 9.38371 30.0528L9.94357 30.3844C12.25 31.7506 14.8815 32.4712 17.5622 32.4707L17.5684 32.8125V32.4707C25.82 32.4707 32.5391 25.7571 32.5391 17.5048C32.5404 13.5345 30.9645 9.72639 28.1581 6.91798C25.3518 4.10957 21.5448 2.53093 17.5745 2.5293C9.31945 2.5293 2.60109 9.24082 2.59768 17.4925C2.59351 20.3099 3.387 23.071 4.88635 25.4563L5.2507 26.036C5.27609 26.0763 5.2928 26.1214 5.29974 26.1685C5.30669 26.2156 5.30372 26.2636 5.29104 26.3095L3.90061 31.3858L9.12326 30.0187C9.15125 30.0104 9.18021 30.0058 9.20939 30.005ZM22.3576 26.693C21.7179 26.695 21.0817 26.5979 20.4716 26.4052C19.5695 26.1248 18.6828 25.7971 17.8152 25.4235C13.9836 23.7699 11.2034 20.3581 9.88547 18.4714C9.84992 18.4201 9.82531 18.3846 9.81164 18.3661C9.22307 17.5813 7.8634 15.5367 7.8634 13.4012C7.8634 11.1453 8.99406 9.94014 9.47668 9.42471C9.50881 9.39121 9.5382 9.35635 9.56418 9.33105C9.74992 9.12064 9.97743 8.95119 10.2322 8.8335C10.487 8.71581 10.7635 8.65245 11.0442 8.64746C11.3073 8.64746 11.6478 8.64746 11.9431 8.66455C11.9704 8.66455 11.9978 8.66455 12.0272 8.66455C12.4319 8.66455 12.8919 8.73701 13.2775 9.66328C13.4053 9.97021 13.5919 10.4248 13.7888 10.9033C14.1572 11.8002 14.6159 12.9165 14.687 13.0587C14.7581 13.2009 14.9837 13.6534 14.7253 14.1709C14.7028 14.2153 14.6822 14.2584 14.6624 14.2987C14.5486 14.5541 14.3993 14.7921 14.2188 15.0056C14.1436 15.0931 14.0656 15.1881 13.9877 15.2831C13.8264 15.4793 13.6603 15.6816 13.5092 15.83C13.2693 16.0692 13.2358 16.1349 13.3615 16.355C13.6835 16.9073 14.5708 18.3148 15.8546 19.4599C16.8292 20.3397 17.9473 21.046 19.1605 21.5482C19.2931 21.6057 19.3984 21.6515 19.4818 21.6932C19.8694 21.8866 19.9487 21.7964 20.069 21.659C20.4005 21.2796 21.2208 20.3082 21.499 19.8898C21.9741 19.1775 22.5531 19.3881 22.9346 19.5275C23.3994 19.6971 25.792 20.8783 26.116 21.0403C26.2042 21.0848 26.2869 21.1244 26.3628 21.1613C26.7292 21.3384 26.9931 21.4662 27.138 21.7082C27.3615 22.0801 27.2535 23.1916 26.8988 24.1869C26.4524 25.4365 24.4576 26.4585 23.5197 26.5979C23.1353 26.6586 22.7468 26.6904 22.3576 26.693ZM11.0462 9.32969C10.8604 9.33598 10.6779 9.38051 10.51 9.46048C10.3422 9.54046 10.1927 9.65418 10.0707 9.79453L9.98049 9.89229C9.51428 10.3906 8.54904 11.416 8.54904 13.3984C8.54904 14.041 8.72541 15.7719 10.3565 17.9484C10.377 17.9751 10.4064 18.0168 10.4481 18.0776C11.723 19.9042 14.4095 23.2046 18.0859 24.7933C18.9325 25.1576 19.7978 25.4771 20.678 25.7503C21.7923 26.1037 22.7787 26.0162 23.424 25.9198C24.1958 25.805 25.9239 24.8944 26.2596 23.9552C26.5952 23.0159 26.6055 22.2223 26.5508 22.0493C26.4975 21.981 26.2712 21.8723 26.0723 21.7759L25.8159 21.6508C25.1973 21.3411 23.0863 20.3068 22.707 20.1688C22.2968 20.019 22.2284 20.032 22.0726 20.2672C21.7424 20.7628 20.8175 21.8449 20.5878 22.1074C20.1025 22.6625 19.5802 22.5032 19.1803 22.3029C19.1119 22.2694 19.0155 22.2277 18.8925 22.1744C17.6146 21.6404 16.4359 20.8946 15.4062 19.9685C14.0492 18.7585 13.1161 17.2778 12.7778 16.6975C12.3724 16.0022 12.803 15.5743 13.0341 15.3439C13.1599 15.2188 13.3151 15.0295 13.4661 14.8463C13.5468 14.7479 13.6275 14.6494 13.7061 14.5578C13.849 14.3872 13.9665 14.1968 14.0547 13.9925C14.0752 13.9501 14.0964 13.9063 14.1231 13.8599C14.1996 13.7074 14.1914 13.5666 14.0848 13.3588C14.0082 13.2057 13.6712 12.3881 13.166 11.1576C12.9698 10.6791 12.7832 10.2266 12.6561 9.921C12.4141 9.33994 12.2493 9.34199 12.0408 9.34268C11.9985 9.34268 11.9581 9.34268 11.9185 9.34268C11.6307 9.32969 11.3012 9.32764 11.0462 9.32764V9.32969Z" fill="#3F456B"/>
</svg>
