<svg width="35" height="35" viewBox="0 0 35 35" fill="none" xmlns="http://www.w3.org/2000/svg">
<path d="M17.5 26.5234C22.4835 26.5234 26.5234 22.4835 26.5234 17.5C26.5234 12.5165 22.4835 8.47656 17.5 8.47656C12.5165 8.47656 8.47656 12.5165 8.47656 17.5C8.47656 22.4835 12.5165 26.5234 17.5 26.5234Z" fill="#F5F6F7"/>
<path d="M17.8676 29.0388C15.5126 28.9978 13.4926 28.9704 11.4705 28.9233C10.1298 28.8904 8.78949 28.8394 7.44964 28.7701C6.78109 28.736 6.11322 28.6601 5.44945 28.5712C4.74466 28.4769 4.07064 28.2718 3.46703 27.8808C2.84909 27.4856 2.364 26.9141 2.07455 26.2402C1.77976 25.5682 1.57297 24.861 1.45931 24.1361C1.36771 23.5598 1.34173 22.9739 1.28021 22.3922C1.10111 20.7024 1.15375 19.0064 1.14964 17.3117C1.14964 16.3192 1.12435 15.3252 1.16947 14.3347C1.218 13.2676 1.32054 12.2019 1.42718 11.1382C1.51773 10.3047 1.74089 9.49096 2.08822 8.72785C2.4389 7.9383 3.01449 7.35519 3.75961 6.92795C4.46439 6.52258 5.23822 6.37355 6.03597 6.33117C7.52005 6.25256 9.00482 6.17121 10.4896 6.11584C13.8255 5.99074 17.1656 5.96955 20.5077 6.01535C21.6862 6.0313 22.8642 6.05728 24.0418 6.09328C25.1786 6.12746 26.3161 6.16779 27.4516 6.23C28.2295 6.27238 29.0102 6.31613 29.7799 6.42756C31.074 6.61486 32.1041 7.24787 32.7823 8.39289C33.0735 8.88713 33.2444 9.43127 33.3975 9.98088C33.6511 10.8914 33.7085 11.8266 33.7776 12.7624C33.8309 13.4898 33.8842 14.2185 33.8917 14.9499C33.9081 16.6493 33.9204 18.3494 33.8876 20.0488C33.8671 21.1029 33.7687 22.1557 33.6901 23.2084C33.6619 23.624 33.6082 24.0374 33.5294 24.4464C33.3531 25.3351 33.1029 26.2005 32.5772 26.9518C32.178 27.5226 31.6331 27.9327 31.0049 28.2328C30.3418 28.5487 29.6302 28.6546 28.909 28.6929C27.3436 28.777 25.7782 28.8658 24.2107 28.9123C21.9849 28.9718 19.7598 29.0012 17.8676 29.0388ZM22.9624 17.4861C22.4538 17.2195 21.9849 16.9727 21.5139 16.7273C20.9513 16.4347 20.3867 16.1448 19.8247 15.8509C19.202 15.5255 18.5813 15.196 17.9592 14.8706C17.3488 14.5514 16.7363 14.2369 16.1265 13.9184C15.5167 13.5998 14.9165 13.2826 14.3116 12.9654C14.2343 12.9244 14.2036 12.9497 14.207 13.0338C14.2138 13.2061 14.2193 13.3756 14.2193 13.5499C14.2193 16.3326 14.2193 19.1155 14.2193 21.8987C14.2193 21.9362 14.2275 21.9738 14.2343 22.0354L22.9624 17.4861Z" fill="#E95A6B"/>
<g opacity="0.2">
<path d="M17.5 27.959C17.5 27.959 10.5273 27.8906 6.5625 27.6172C2.59766 27.3438 1.6748 25.1221 1.6748 25.1221C1.6748 25.1221 1.93662 28.5059 6.53994 28.7109C6.53994 28.7109 13.8544 29.0753 17.1124 29.0302H17.9211C21.1798 29.0753 28.4942 28.7109 28.4942 28.7109C33.0969 28.5059 33.3594 25.1221 33.3594 25.1221C33.3594 25.1221 32.4365 27.3438 28.4717 27.6172C24.5068 27.8906 17.5342 27.959 17.5342 27.959H17.5Z" fill="#3F456B"/>
</g>
<g opacity="0.2">
<path d="M17.5 7.05594C17.5 7.05594 10.5273 7.1243 6.5625 7.39773C2.59766 7.67117 1.6748 9.89285 1.6748 9.89285C1.6748 9.89285 1.93662 6.50906 6.53994 6.30398C6.53994 6.30398 13.8544 5.93963 17.1124 5.98543H17.9211C21.1798 5.93963 28.4942 6.30398 28.4942 6.30398C33.0969 6.50906 33.3594 9.89285 33.3594 9.89285C33.3594 9.89285 32.4365 7.67117 28.4717 7.39773C24.5068 7.1243 17.5342 7.05594 17.5342 7.05594H17.5Z" fill="white"/>
</g>
<g opacity="0.15">
<path d="M14.2188 12.9199L21.0889 18.5254L22.9688 17.5L14.2188 12.9199Z" fill="#3F456B"/>
</g>
<path d="M17.8675 29.3806H17.8614L15.7771 29.3458C14.2786 29.3219 12.8636 29.2986 11.4622 29.2651C10.1415 29.233 8.78596 29.1817 7.42903 29.112C6.8425 29.0812 6.21702 29.019 5.40149 28.9069C4.57981 28.7989 3.88118 28.5562 3.28098 28.168C2.60751 27.7361 2.07836 27.1129 1.76135 26.3783C1.45564 25.6795 1.24105 24.9443 1.12288 24.1908C1.06135 23.8053 1.02854 23.4156 0.997094 23.039C0.980688 22.838 0.962914 22.6288 0.941723 22.4292C0.795434 21.0517 0.805004 19.6565 0.805004 18.3078C0.805004 17.9763 0.805004 17.6447 0.805004 17.3132C0.805004 17.0862 0.805004 16.8579 0.800903 16.6296C0.795434 15.8735 0.789965 15.0908 0.824828 14.319C0.873363 13.2567 0.975219 12.1924 1.08391 11.1061C1.18034 10.236 1.41431 9.38663 1.77707 8.58983C2.1387 7.76952 2.74778 7.11464 3.58723 6.63202C4.25784 6.24647 5.02961 6.04208 6.01604 5.99012L6.38997 5.96962C7.72844 5.90126 9.11135 5.82538 10.4744 5.77411C13.5971 5.6579 16.8797 5.62372 20.511 5.67089C21.6437 5.68593 22.8352 5.7119 24.0513 5.74882C24.994 5.77753 26.2347 5.81718 27.4693 5.88553C28.1966 5.9245 29.0217 5.96962 29.8277 6.08583C31.2721 6.29501 32.3645 7.01141 33.0754 8.21591C33.3994 8.76278 33.5813 9.36503 33.7262 9.88592C33.975 10.7801 34.042 11.6974 34.1063 12.5841L34.1186 12.7474C34.1712 13.4639 34.2252 14.2056 34.2327 14.9404C34.2491 16.6583 34.2615 18.3413 34.2286 20.0489C34.2122 20.8979 34.1446 21.7545 34.0796 22.583C34.0632 22.7976 34.0461 23.013 34.0304 23.2276C34.0009 23.6571 33.9454 24.0845 33.8643 24.5073C33.6995 25.3324 33.4541 26.2908 32.856 27.1412C32.452 27.7195 31.8784 28.1885 31.1511 28.535C30.367 28.909 29.5508 28.9951 28.9267 29.0286L28.3798 29.058C27.0181 29.1311 25.6099 29.207 24.2215 29.248C22.6383 29.2945 21.09 29.3225 19.5922 29.3492C18.9982 29.3595 18.4239 29.3697 17.8771 29.3806H17.8675ZM17.4273 6.33397C14.993 6.33397 12.7057 6.37499 10.4997 6.45702C9.14211 6.50829 7.76125 6.58143 6.42551 6.65253L6.05159 6.67235C5.1759 6.71884 4.5012 6.89452 3.92698 7.22469C3.20647 7.63895 2.70745 8.17626 2.4012 8.86532C2.06932 9.59554 1.85543 10.3738 1.7675 11.1711C1.66018 12.2491 1.55901 13.3039 1.51116 14.3491C1.47698 15.1011 1.48245 15.8763 1.48791 16.6234C1.48791 16.8524 1.49133 17.0814 1.49202 17.307C1.49202 17.6399 1.49202 17.9728 1.49202 18.3057C1.48655 19.636 1.48108 21.0121 1.62258 22.3526C1.64514 22.5611 1.66291 22.7724 1.68 22.9767C1.71008 23.3411 1.74221 23.7184 1.79895 24.0787C1.90832 24.7744 2.10635 25.4533 2.38821 26.0987C2.64973 26.7119 3.09058 27.2316 3.65286 27.5896C4.1676 27.9219 4.77121 28.131 5.49856 28.2281C6.29495 28.3348 6.90334 28.3956 7.47141 28.425C8.81877 28.4933 10.1682 28.546 11.4827 28.5774C12.8814 28.6109 14.2957 28.6342 15.7894 28.6581L17.8689 28.693C18.4157 28.682 18.9865 28.6718 19.5779 28.6615C21.0736 28.6348 22.6199 28.6075 24.1996 28.5603C25.5791 28.52 26.9832 28.4441 28.3415 28.371L28.8884 28.3416C29.721 28.2972 30.3274 28.1652 30.8544 27.9137C31.4826 27.6142 31.9536 27.2301 32.2941 26.7454C32.817 25.9982 33.0412 25.1253 33.1916 24.3692C33.2677 23.9742 33.3196 23.575 33.3468 23.1736C33.3632 22.9583 33.3803 22.7423 33.3967 22.5269C33.461 21.7066 33.528 20.8617 33.5437 20.0332C33.5765 18.3345 33.5642 16.6569 33.5478 14.9445C33.5409 14.2308 33.4869 13.5008 33.435 12.7946L33.4234 12.6312C33.3584 11.7385 33.2969 10.8949 33.0665 10.0671C32.9298 9.58856 32.7671 9.0369 32.4855 8.56317C31.8853 7.5453 30.9576 6.93964 29.7285 6.7619C28.9527 6.64979 28.144 6.60604 27.431 6.56708C26.2039 6.49872 24.97 6.45975 24.0294 6.43036C22.8174 6.39344 21.63 6.36747 20.5014 6.35243C19.4487 6.34081 18.426 6.33397 17.4273 6.33397ZM14.2342 22.3793C14.1501 22.3799 14.0688 22.3494 14.0057 22.2938C13.9427 22.2382 13.9023 22.1613 13.8924 22.0778C13.8924 22.06 13.8876 22.0443 13.8856 22.0307C13.8791 21.9881 13.8754 21.9452 13.8746 21.9021V13.5534C13.8746 13.3811 13.8692 13.2116 13.863 13.051C13.855 12.976 13.8678 12.9003 13.9 12.8322C13.9322 12.7641 13.9826 12.7061 14.0455 12.6647C14.109 12.6257 14.182 12.6051 14.2564 12.6051C14.3309 12.6051 14.4039 12.6257 14.4673 12.6647L15.1065 13.0004C15.4979 13.2068 15.8896 13.4119 16.2816 13.6156L17.1764 14.0805C17.4895 14.2427 17.8021 14.4052 18.1143 14.5679C18.4239 14.7292 18.7329 14.8926 19.0426 15.0553L19.9798 15.5481C20.2902 15.7104 20.6007 15.8715 20.9115 16.0314C21.164 16.1618 21.4165 16.2928 21.669 16.4245C21.993 16.5933 22.317 16.7663 22.6527 16.9392L23.1182 17.1833C23.1735 17.2122 23.2198 17.2557 23.2521 17.3091C23.2844 17.3625 23.3015 17.4237 23.3015 17.4861C23.3015 17.5485 23.2844 17.6097 23.2521 17.6631C23.2198 17.7165 23.1735 17.76 23.1182 17.789L14.3921 22.3403C14.3434 22.3658 14.2892 22.3792 14.2342 22.3793ZM14.5603 13.4844V21.4824L22.224 17.4875C21.9287 17.3323 21.6423 17.1819 21.3552 17.0329C21.1036 16.9016 20.8516 16.7709 20.5991 16.6405L19.6654 16.1558C19.3518 15.9918 19.0387 15.8273 18.7261 15.6623C18.4135 15.4973 18.1049 15.3351 17.8005 15.1756L16.8647 14.6889C16.5653 14.5344 16.2663 14.3792 15.9678 14.2233C15.5754 14.0182 15.183 13.8132 14.7906 13.6081L14.5603 13.4844Z" fill="#3F456B"/>
</svg>
